<svg xmlns="http://www.w3.org/2000/svg" width="16" height="16" viewBox="0 0 16 16">
  <g id="Accounting" transform="translate(-153 -720)">
    <path id="Path_1201" data-name="Path 1201" d="M9.745,8A1.746,1.746,0,0,0,8,9.745V15.3h7.3V8ZM12.6,12.284h-.635v.635a.476.476,0,1,1-.952,0v-.635H10.38a.476.476,0,1,1,0-.952h.635V10.7a.476.476,0,1,1,.952,0v.635H12.6a.476.476,0,1,1,0,.952Z" transform="translate(145 712)" fill="#adb5d9"/>
    <path id="Path_1202" data-name="Path 1202" d="M8,16.333v5.554a1.746,1.746,0,0,0,1.745,1.746H15.3v-7.3Zm4.78,4.108a.476.476,0,0,1-.674.673l-.457-.457-.457.457a.471.471,0,0,1-.335.139.476.476,0,0,1-.337-.812l.457-.457-.457-.457a.476.476,0,0,1,.673-.673l.457.457.457-.457a.476.476,0,0,1,.673.673l-.457.457Z" transform="translate(145 712.367)" fill="#adb5d9" opacity="0.5"/>
    <path id="Path_1203" data-name="Path 1203" d="M21.889,8H16.334v7.3h7.3V9.746A1.746,1.746,0,0,0,21.889,8Zm-.318,4.126H18.714a.476.476,0,1,1,0-.952h2.857a.476.476,0,1,1,0,.952Z" transform="translate(145.365 712)" fill="#adb5d9" opacity="0.5"/>
    <path id="Path_1204" data-name="Path 1204" d="M16.333,16.333v7.3h5.554a1.746,1.746,0,0,0,1.746-1.745V16.334h-7.3Zm5.079,5.079H18.555a.476.476,0,1,1,0-.952h2.857a.476.476,0,0,1,0,.952Zm0-1.9H18.555a.476.476,0,1,1,0-.952h2.857a.476.476,0,0,1,0,.952Z" transform="translate(145.366 712.366)" fill="#adb5d9"/>
  </g>
</svg>
