<svg xmlns="http://www.w3.org/2000/svg" width="20" height="19.763" viewBox="0 0 20 19.763">
  <path id="Path_34" data-name="Path 34" d="M18.214,16.182V11.114c0-3.111-1.662-5.716-4.561-6.405V4.02a1.527,1.527,0,0,0-1.53-1.52,1.51,1.51,0,0,0-1.51,1.52v.689C7.7,5.4,6.052,7.993,6.052,11.114v5.067L4.735,17.489a1.014,1.014,0,0,0,.709,1.733H18.791a1.017,1.017,0,0,0,.72-1.733Zm-6.091,6.081a2.033,2.033,0,0,0,2.027-2.027H10.1A2.026,2.026,0,0,0,12.123,22.263ZM6.832,4.76a1,1,0,0,0,.03-1.449,1.013,1.013,0,0,0-1.409-.02A10.564,10.564,0,0,0,2.14,9.432a1.024,1.024,0,0,0,1.013,1.176,1.01,1.01,0,0,0,.993-.841A8.554,8.554,0,0,1,6.832,4.76Zm11.989-1.47a1.025,1.025,0,0,0-1.419.02,1,1,0,0,0,.03,1.439,8.61,8.61,0,0,1,2.686,5.007,1,1,0,0,0,.993.841,1.017,1.017,0,0,0,1-1.176,10.629,10.629,0,0,0-3.294-6.131Z" transform="translate(-2.129 -2.5)" fill="#fff" opacity="0.8"/>
</svg>
