<svg xmlns="http://www.w3.org/2000/svg" width="16" height="14" viewBox="0 0 16 14">
  <path id="Department" d="M14.166,13H1.833A2.006,2.006,0,0,1,0,10.86V1.139A2.006,2.006,0,0,1,1.833-1H14.167A2.006,2.006,0,0,1,16,1.139v9.722A2.006,2.006,0,0,1,14.166,13ZM9.833,8.333a.5.5,0,1,0,0,1H13.5a.5.5,0,1,0,0-1Zm-6-1.666A1.835,1.835,0,0,0,2,8.5v.333a.5.5,0,0,0,.5.5h5a.5.5,0,0,0,.5-.5V8.5A1.835,1.835,0,0,0,6.166,6.667Zm6-1a.5.5,0,1,0,0,1H13.5a.5.5,0,1,0,0-1ZM5,2.666A1.667,1.667,0,1,0,6.667,4.333,1.669,1.669,0,0,0,5,2.666ZM9.833,3a.5.5,0,1,0,0,1H13.5a.5.5,0,1,0,0-1Z" transform="translate(0 1)" fill="#adb5d9"/>
</svg>
