<svg xmlns="http://www.w3.org/2000/svg" width="16" height="16" viewBox="0 0 16 16">
  <g id="Designation" transform="translate(-36 -674)">
    <circle id="Ellipse_117" data-name="Ellipse 117" cx="2.667" cy="2.667" r="2.667" transform="translate(46.666 674)" fill="#adb5d9" opacity="0.5"/>
    <path id="Path_1118" data-name="Path 1118" d="M9.153,24H20.846A1.148,1.148,0,0,0,22,22.853v-8.58A3.673,3.673,0,0,1,17.726,10H9.153A1.149,1.149,0,0,0,8,11.147V22.854A1.147,1.147,0,0,0,9.153,24Zm6.18-10A1.333,1.333,0,1,1,14,15.333,1.337,1.337,0,0,1,15.333,14Zm-2.666,4.947a1.679,1.679,0,0,1,1.74-1.613H16.26A1.679,1.679,0,0,1,18,18.947V19.5a.5.5,0,0,1-.5.5H13.167a.5.5,0,0,1-.5-.5Z" transform="translate(28 666)" fill="#adb5d9"/>
  </g>
</svg>
