<svg xmlns="http://www.w3.org/2000/svg" width="16" height="16" viewBox="0 0 16 16">
  <path id="edit-alt_5_" data-name="edit-alt (5)" d="M4.4,14.8H7.792a.8.8,0,0,0,.568-.232L13.9,9.021h0L16.168,6.8a.8.8,0,0,0,0-1.136L12.776,2.231a.8.8,0,0,0-1.136,0L9.384,4.494h0L3.832,10.037A.8.8,0,0,0,3.6,10.6V14A.8.8,0,0,0,4.4,14.8ZM12.208,3.926,14.472,6.19,13.336,7.325,11.072,5.062ZM5.2,10.932,9.944,6.19l2.264,2.263L7.464,13.2H5.2Zm12,5.462H2.8a.8.8,0,1,0,0,1.6H17.2a.8.8,0,1,0,0-1.6Z" transform="translate(-2 -1.994)" fill="#9da7be"/>
</svg>
