<svg xmlns="http://www.w3.org/2000/svg" width="13.43" height="16" viewBox="0 0 13.43 16">
  <g id="Employee_Activity" data-name="Employee Activity" transform="translate(-298.328 -588)">
    <path id="Union_10" data-name="Union 10" d="M.447,14.21A.447.447,0,0,1,0,13.764V11.678A2.834,2.834,0,0,1,2.83,8.847H7.9a2.835,2.835,0,0,1,2.832,2.831v2.086a.447.447,0,0,1-.448.447ZM2.384,2.98A2.979,2.979,0,1,1,5.363,5.96,2.98,2.98,0,0,1,2.384,2.98Z" transform="translate(299.679 589.79)" fill="#adb5d9"/>
    <path id="Union_11" data-name="Union 11" d="M10.746,9.109a.6.6,0,1,1,0-1.193h.894a.6.6,0,0,0,.6-.6V6.274a.6.6,0,1,1,1.193,0V7.318a1.793,1.793,0,0,1-1.79,1.791Zm-8.958,0A1.791,1.791,0,0,1,0,7.318V6.274a.6.6,0,1,1,1.193,0V7.318a.6.6,0,0,0,.6.6h.894a.6.6,0,0,1,0,1.193ZM12.236,2.834V1.79a.6.6,0,0,0-.6-.6h-.894a.6.6,0,0,1,0-1.193h.894a1.791,1.791,0,0,1,1.789,1.79V2.835a.6.6,0,0,1-1.193,0ZM0,2.834V1.79A1.791,1.791,0,0,1,1.788,0h.894a.6.6,0,1,1,0,1.193H1.788a.6.6,0,0,0-.6.6V2.836A.6.6,0,0,1,0,2.834Z" transform="translate(298.328 588)" fill="#adb5d9" opacity="0.5"/>
  </g>
</svg>
