<svg xmlns="http://www.w3.org/2000/svg" width="16" height="15" viewBox="0 0 16 15">
  <g id="Employee" transform="translate(4307 -1825)">
    <circle id="Ellipse_15" data-name="Ellipse 15" cx="2" cy="2" r="2" transform="translate(-4307 1830)" fill="#adb5d9"/>
    <circle id="Ellipse_16" data-name="Ellipse 16" cx="2" cy="2" r="2" transform="translate(-4307 1836)" fill="#adb5d9"/>
    <g id="Group_1785" data-name="Group 1785" transform="translate(-4315 1822)">
      <path id="Path_1033" data-name="Path 1033" d="M23.5,8.333H13.833a.5.5,0,1,0,0,1H23.5a.5.5,0,0,0,0-1Z" fill="#adb5d9"/>
      <path id="Path_1034" data-name="Path 1034" d="M23.5,10.333H13.833a.5.5,0,0,0,0,1H23.5a.5.5,0,0,0,0-1Z" fill="#adb5d9"/>
      <path id="Path_1035" data-name="Path 1035" d="M23.5,14.333H13.833a.5.5,0,0,0,0,1H23.5a.5.5,0,0,0,0-1Z" fill="#adb5d9"/>
      <path id="Path_1036" data-name="Path 1036" d="M23.5,16.333H13.833a.5.5,0,1,0,0,1H23.5a.5.5,0,0,0,0-1Z" fill="#adb5d9"/>
    </g>
    <rect id="Rectangle_600" data-name="Rectangle 600" width="16" height="3" rx="1.5" transform="translate(-4307 1825)" fill="#adb5d9" opacity="0.5"/>
  </g>
</svg>
