<svg xmlns="http://www.w3.org/2000/svg" width="16" height="16" viewBox="0 0 16 16">
  <g id="Employee_Report" data-name="Employee Report" transform="translate(4119 -1838)">
    <path id="Path_1012" data-name="Path 1012" d="M22.833,13.333H9.167A1.173,1.173,0,0,0,8,14.5v8.333A1.173,1.173,0,0,0,9.167,24H22.834A1.173,1.173,0,0,0,24,22.833V14.5A1.173,1.173,0,0,0,22.833,13.333Zm-8,9H10.5a.5.5,0,0,1,0-1h4.333a.5.5,0,0,1,0,1Zm0-2H10.5a.5.5,0,0,1,0-1h4.333a.5.5,0,0,1,0,1Zm0-2H10.5a.5.5,0,0,1,0-1h4.333a.5.5,0,0,1,0,1Zm0-2H10.5a.5.5,0,0,1,0-1h4.333a.5.5,0,0,1,0,1Zm6.667,6H17.167a.5.5,0,0,1,0-1H21.5a.5.5,0,0,1,0,1Zm0-2H17.167a.5.5,0,0,1,0-1H21.5a.5.5,0,0,1,0,1Zm0-2H17.167a.5.5,0,0,1,0-1H21.5a.5.5,0,0,1,0,1Zm0-2H17.167a.5.5,0,0,1,0-1H21.5a.5.5,0,0,1,0,1Z" transform="translate(-4127 1830)" fill="#adb5d9"/>
    <rect id="Rectangle_601" data-name="Rectangle 601" width="16" height="4" rx="2" transform="translate(-4119 1838)" fill="#adb5d9" opacity="0.5"/>
  </g>
</svg>
