<svg xmlns="http://www.w3.org/2000/svg" width="20.169" height="22" viewBox="0 0 20.169 22">
  <g id="Group_1907" data-name="Group 1907" transform="translate(-319.666 -719)">
    <path id="Union_16" data-name="Union 16" d="M10.081,11.407H6.187a.913.913,0,1,1,0-1.826h2.98V7.3H3.439A.694.694,0,0,1,3.1,7.207,1.823,1.823,0,0,1,1.835,5.471V2.736a.9.9,0,0,0-.9-.91A.922.922,0,0,1,0,.91.912.912,0,0,1,.914,0,2.744,2.744,0,0,1,3.665,2.736v.117a2.52,2.52,0,0,1,1.6-.575H14.9a2.512,2.512,0,0,1,1.6.575V2.736A2.746,2.746,0,0,1,19.252,0a.918.918,0,0,1,.917.91.926.926,0,0,1-.932.916.9.9,0,0,0-.908.91V5.471a1.824,1.824,0,0,1-1.255,1.734.694.694,0,0,1-.344.092H11V9.581h2.98a.913.913,0,1,1,0,1.826Z" transform="translate(319.666 729.593)" fill="#fe7d13"/>
    <path id="Path_1174" data-name="Path 1174" d="M22.369,19.866h-9.3a1.611,1.611,0,0,1-1.231-.57,1.588,1.588,0,0,1-.354-1.3L13,9.324A1.6,1.6,0,0,1,14.587,8h6.265a1.6,1.6,0,0,1,1.584,1.324l1.519,8.67a1.584,1.584,0,0,1-.354,1.3A1.611,1.611,0,0,1,22.369,19.866Z" transform="translate(312.031 711)" fill="#fe7d13" opacity="0.5"/>
  </g>
</svg>
