<svg xmlns="http://www.w3.org/2000/svg" width="15.998" height="13.797" viewBox="0 0 15.998 13.797">
  <g id="Feedback" transform="translate(2461.668 -187.536)">
    <path id="Path_1097" data-name="Path 1097" d="M236.395,343.153h-9.043a.7.7,0,1,1,0-1.392h9.043a.7.7,0,1,1,0,1.392Zm0,0" transform="translate(-2682.76 -141.821)" fill="#b4bce1" opacity="0.5"/>
    <path id="Union_8" data-name="Union 8" d="M.1,13.695a.349.349,0,0,1-.093-.326l.759-3.218A.346.346,0,0,1,.86,9.986L8.029,2.817l2.95,2.951L3.811,12.937a.341.341,0,0,1-.166.093l-3.218.759A.346.346,0,0,1,.1,13.695ZM9.012,1.833,10.451.395a1.423,1.423,0,0,1,1.967,0l.984.984a1.389,1.389,0,0,1,0,1.967L11.963,4.784Z" transform="translate(-2461.668 187.536)" fill="#b4bce1"/>
  </g>
</svg>
