<svg xmlns="http://www.w3.org/2000/svg" width="18" height="11.601" viewBox="0 0 18 11.601">
  <g id="Group_82" data-name="Group 82" transform="translate(-2 -5)">
    <path id="Path_28" data-name="Path 28" d="M19.1,11H2.9a.806.806,0,1,0,0,1.6H19.1a.806.806,0,1,0,0-1.6Z" transform="translate(0 -1)" fill="#696d7e"/>
    <path id="Path_29" data-name="Path 29" d="M2.9,6.6H19.1a.854.854,0,0,0,.9-.8.854.854,0,0,0-.9-.8H2.9a.855.855,0,0,0-.9.8A.855.855,0,0,0,2.9,6.6Z" fill="#696d7e"/>
    <path id="Path_30" data-name="Path 30" d="M19.1,17H2.9a.806.806,0,1,0,0,1.6H19.1a.806.806,0,1,0,0-1.6Z" transform="translate(0 -2)" fill="#696d7e"/>
  </g>
</svg>
