<svg xmlns="http://www.w3.org/2000/svg" width="18.239" height="18" viewBox="0 0 18.239 18">
  <g id="_010-home" data-name="010-home" transform="translate(0.006 -3.3)">
    <g id="Group_105" data-name="Group 105" transform="translate(-0.006 3.3)" opacity="0.4">
      <path id="Path_42" data-name="Path 42" d="M17.089,10.726a1.143,1.143,0,0,1-.616-.182L9.086,5.8,1.7,10.544A1.143,1.143,0,0,1,.467,8.624l8-5.143a1.142,1.142,0,0,1,1.236,0l8,5.143a1.142,1.142,0,0,1-.62,2.1Z" transform="translate(0.006 -3.3)" fill="#5d78ff"/>
    </g>
    <path id="Path_43" data-name="Path 43" d="M69.656,107.5,62.8,112.073V119.5a2.287,2.287,0,0,0,2.287,2.287h9.146a2.287,2.287,0,0,0,2.286-2.287v-7.429Zm0,11.433a3.429,3.429,0,0,1-3.43-3.43h6.86A3.429,3.429,0,0,1,69.656,118.933Z" transform="translate(-60.57 -100.489)" fill="#5d78ff"/>
  </g>
</svg>
