<svg xmlns="http://www.w3.org/2000/svg" width="15.645" height="16" viewBox="0 0 15.645 16">
  <g id="Leave" transform="translate(4119 -1800)">
    <path id="Path_1025" data-name="Path 1025" d="M19.664,54.149v1.936a1.581,1.581,0,0,1-1.584,1.58h-1a1.589,1.589,0,0,1-1.594-1.58V54.142h-4.5v1.943a1.589,1.589,0,0,1-1.594,1.58h-1A1.581,1.581,0,0,1,6.8,56.085V54.149a1.441,1.441,0,0,0-1.393,1.434V66.929a1.442,1.442,0,0,0,1.434,1.443H19.622a1.443,1.443,0,0,0,1.434-1.443V55.583A1.441,1.441,0,0,0,19.664,54.149ZM19.2,66.223a.62.62,0,0,1-.62.62H7.86a.62.62,0,0,1-.62-.62V60.362a.62.62,0,0,1,.62-.62H18.579a.62.62,0,0,1,.62.62v5.861Z" transform="translate(-4124.411 1747.627)" fill="#adb5d9"/>
    <path id="Path_1023" data-name="Path 1023" d="M215.658,355.237a.362.362,0,0,0-.362-.362h-1.264a.362.362,0,0,0-.362.362V356.5a.362.362,0,0,0,.362.362H215.3a.362.362,0,0,0,.362-.362Z" transform="translate(-4325.841 1456.769)" fill="#adb5d9"/>
    <g id="Group_1800" data-name="Group 1800" opacity="0.5">
      <path id="Path_1019" data-name="Path 1019" d="M119.023,258.6a.362.362,0,0,0-.362-.362H117.4a.362.362,0,0,0-.362.362v1.263a.362.362,0,0,0,.362.362h1.264a.362.362,0,0,0,.362-.362V258.6Z" transform="translate(-4232.375 1550.226)" fill="#adb5d9"/>
      <path id="Path_1020" data-name="Path 1020" d="M215.658,258.6a.362.362,0,0,0-.362-.362h-1.264a.362.362,0,0,0-.362.362v1.263a.362.362,0,0,0,.362.362H215.3a.362.362,0,0,0,.362-.362Z" transform="translate(-4325.841 1550.226)" fill="#adb5d9"/>
      <path id="Path_1021" data-name="Path 1021" d="M312.286,258.6a.362.362,0,0,0-.362-.362H310.66a.362.362,0,0,0-.362.362v1.263a.362.362,0,0,0,.362.362h1.264a.362.362,0,0,0,.362-.362Z" transform="translate(-4419.301 1550.226)" fill="#adb5d9"/>
      <path id="Path_1022" data-name="Path 1022" d="M119.023,355.237a.362.362,0,0,0-.362-.362H117.4a.362.362,0,0,0-.362.362V356.5a.362.362,0,0,0,.362.362h1.264a.362.362,0,0,0,.362-.362v-1.263Z" transform="translate(-4232.375 1456.769)" fill="#adb5d9"/>
      <path id="Path_1026" data-name="Path 1026" d="M80.092,4.247h.986a.542.542,0,0,0,.542-.541V.542A.542.542,0,0,0,81.078,0h-.986a.542.542,0,0,0-.542.542V3.705A.542.542,0,0,0,80.092,4.247Z" transform="translate(-4196.119 1800)" fill="#adb5d9"/>
      <path id="Path_1027" data-name="Path 1027" d="M345,4.247h.986a.542.542,0,0,0,.542-.541V.542A.542.542,0,0,0,345.986,0H345a.542.542,0,0,0-.542.542V3.705A.542.542,0,0,0,345,4.247Z" transform="translate(-4452.34 1800)" fill="#adb5d9"/>
    </g>
  </g>
</svg>
