<svg xmlns="http://www.w3.org/2000/svg" width="21.999" height="19.253" viewBox="0 0 21.999 19.253">
  <g id="Group_1913" data-name="Group 1913" transform="translate(-3.239 -38.503)">
    <g id="Group_1911" data-name="Group 1911" transform="translate(3.239 45.374)">
      <path id="Path_1180" data-name="Path 1180" d="M25.238,326.832a6.555,6.555,0,0,1-.877,3.335,6.7,6.7,0,0,1-6,3.514c-2.755.037-5.51.019-8.265.006a6.86,6.86,0,0,1-6.8-6.008c-.036-.275-.044-.554-.066-.847Z" transform="translate(-3.239 -321.32)" fill="#fe7d13"/>
      <path id="Path_1181" data-name="Path 1181" d="M77.578,201.229a.437.437,0,0,0,.525-.211,2.7,2.7,0,0,1,2.936-1.052,2.767,2.767,0,0,1,2.017,2.437c0,.063,0,.127,0,.2H66.529a6.645,6.645,0,0,1,.226-.958,2.734,2.734,0,0,1,4.783-.627c.182.243.178.246.521.2a2.753,2.753,0,0,1,1.018-2.108,2.685,2.685,0,0,1,1.871-.619A2.773,2.773,0,0,1,77.578,201.229Z" transform="translate(-63.811 -198.497)" fill="#fe7d13"/>
    </g>
    <g id="Group_1912" data-name="Group 1912" transform="translate(11.495 38.503)" opacity="0.5">
      <path id="Path_1182" data-name="Path 1182" d="M259.473,40.549c0-.443,0-.886,0-1.329a.687.687,0,1,1,1.372-.014q.008,1.361,0,2.722a.686.686,0,1,1-1.372-.007C259.47,41.464,259.474,41.007,259.473,40.549Z" transform="translate(-256.724 -38.503)" fill="#fe7d13"/>
      <path id="Path_1183" data-name="Path 1183" d="M196.85,72.576c0,.443,0,.886,0,1.329a.687.687,0,1,1-1.373.007q0-1.34,0-2.679a.687.687,0,1,1,1.372-.007C196.853,71.676,196.85,72.126,196.85,72.576Z" transform="translate(-195.475 -69.133)" fill="#fe7d13"/>
      <path id="Path_1184" data-name="Path 1184" d="M323.467,72.548c0-.436,0-.872,0-1.308a.689.689,0,1,1,1.374-.007q0,1.329,0,2.658a.687.687,0,1,1-1.373.007C323.464,73.448,323.467,73,323.467,72.548Z" transform="translate(-317.969 -69.12)" fill="#fe7d13"/>
    </g>
  </g>
</svg>
