<svg xmlns="http://www.w3.org/2000/svg" width="16.869" height="16" viewBox="0 0 16.869 16">
  <g id="Group_106" data-name="Group 106" transform="translate(-128.672 -125.328)">
    <path id="Path_44" data-name="Path 44" d="M193.512,189.328h-.348v3.31A2.964,2.964,0,0,1,190.2,195.6h-8.187v1.568a1.918,1.918,0,0,0,1.916,1.916h.871v1.568a.522.522,0,0,0,.907.353l1.761-1.921h6.041a1.918,1.918,0,0,0,1.916-1.916v-5.923A1.918,1.918,0,0,0,193.512,189.328Z" transform="translate(-49.887 -59.845)" fill="#9da7be" opacity="0.4"/>
    <path id="Path_45" data-name="Path 45" d="M140.342,125.328h-10.1a1.57,1.57,0,0,0-1.568,1.568v5.923a1.57,1.57,0,0,0,1.568,1.568h10.1a1.57,1.57,0,0,0,1.568-1.568V126.9A1.571,1.571,0,0,0,140.342,125.328Zm.175,3.094-4.7,2.278a1.182,1.182,0,0,1-1.06,0l-4.7-2.278v-1.156l5.15,2.495a.15.15,0,0,0,.154,0l5.15-2.495v1.156Z" transform="translate(0 0)" fill="#9da7be"/>
  </g>
</svg>
