<svg xmlns="http://www.w3.org/2000/svg" width="21.814" height="22.005" viewBox="0 0 21.814 22.005">
  <g id="Group_1895" data-name="Group 1895" transform="translate(-412.262 -790.998)">
    <path id="SVGCleanerId_0" d="M14.774,92.689c1.544.705,3.286.994,4.337,0a22.64,22.64,0,0,0,1.566-1.812,1.41,1.41,0,0,0-.221-1.982l-.054-.042L16.763,86.2a1.411,1.411,0,0,0-1.552-.071l-2.024,1.234h0a19.084,19.084,0,0,1-4.8-4.669l-.247-.346,1.22-2.045a1.411,1.411,0,0,0-.071-1.552L6.65,75.115A1.411,1.411,0,0,0,4.68,74.8l-.054.042a22.641,22.641,0,0,0-1.812,1.566c-.994,1.051-.649,2.779,0,4.337A24.8,24.8,0,0,0,14.774,92.689Z" transform="translate(410.072 719.672)" fill="#fe7d13"/>
    <path id="Union_15" data-name="Union 15" d="M-18258.021-1380.521a2.574,2.574,0,0,0-2.568-2.576,1.408,1.408,0,0,1-1.41-1.407,1.412,1.412,0,0,1,1.41-1.412,5.4,5.4,0,0,1,5.391,5.394,1.415,1.415,0,0,1-1.412,1.412A1.411,1.411,0,0,1-18258.021-1380.521Zm5.092-.665a7.006,7.006,0,0,0-7-6.994,1.408,1.408,0,0,1-1.406-1.412,1.408,1.408,0,0,1,1.406-1.412,9.836,9.836,0,0,1,9.818,9.817,1.413,1.413,0,0,1-1.412,1.412A1.408,1.408,0,0,1-18252.93-1381.185Z" transform="translate(18684.188 2182)" fill="#fe7d13" opacity="0.5"/>
    <g id="Group_1894" data-name="Group 1894" transform="translate(412.262 794.203)">
      <path id="SVGCleanerId_0_1_" d="M14.774,92.689c1.544.705,3.286.994,4.337,0a22.64,22.64,0,0,0,1.566-1.812,1.41,1.41,0,0,0-.221-1.982l-.054-.042L16.763,86.2a1.411,1.411,0,0,0-1.552-.071l-2.024,1.234h0a19.084,19.084,0,0,1-4.8-4.669l-.247-.346,1.22-2.045a1.411,1.411,0,0,0-.071-1.552L6.65,75.115A1.411,1.411,0,0,0,4.68,74.8l-.054.042a22.641,22.641,0,0,0-1.812,1.566c-.994,1.051-.649,2.779,0,4.337A24.8,24.8,0,0,0,14.774,92.689Z" transform="translate(-2.191 -74.531)" fill="#fe7d13"/>
    </g>
  </g>
</svg>
