<svg xmlns="http://www.w3.org/2000/svg" width="14.666" height="16" viewBox="0 0 14.666 16">
  <g id="Notice" transform="translate(4547.328 -1868)">
    <path id="Path_1046" data-name="Path 1046" d="M193.833,128A1.834,1.834,0,0,0,192,129.833v9a1.833,1.833,0,0,0,1.833,1.833H201.5a1.833,1.833,0,0,0,1.833-1.833V130a2,2,0,0,0-2-2Zm6.334,9.667h-5a.5.5,0,1,1,0-1h5a.5.5,0,1,1,0,1Zm0-2h-5a.5.5,0,1,1,0-1h5a.5.5,0,1,1,0,1Zm0-2h-5a.5.5,0,1,1,0-1h5a.5.5,0,1,1,0,1Zm0,0" transform="translate(-4735.995 1740)" fill="#adb5d9"/>
    <path id="Path_1047" data-name="Path 1047" d="M143.838,166.672A2.836,2.836,0,0,1,141,163.839v-9c0-.057.014-.11.017-.167H140.5a1.835,1.835,0,0,0-1.833,1.833v10.667a1.835,1.835,0,0,0,1.833,1.833h8a1.835,1.835,0,0,0,1.833-1.833v-.5Zm0,0" transform="translate(-4686 1714.995)" fill="#adb5d9" opacity="0.5"/>
  </g>
</svg>
