<svg xmlns="http://www.w3.org/2000/svg" width="16" height="16" viewBox="0 0 16 16">
  <g id="Policy" transform="translate(4181 -2066)">
    <path id="Path_1059" data-name="Path 1059" d="M17.5,8H9.833A1.832,1.832,0,0,0,8,9.833V20.166A1.832,1.832,0,0,0,9.833,22h5.433a5.8,5.8,0,0,1-.933-3.133V17.24a.643.643,0,0,1-.333.093H10.667a.667.667,0,1,1,0-1.333H14a.649.649,0,0,1,.34.093,1.957,1.957,0,0,1,.713-1.427H10.666a.667.667,0,0,1,0-1.333h6a.669.669,0,0,1,.62.42l1.9-.647a.54.54,0,0,1,.147-.04V9.833A1.834,1.834,0,0,0,17.5,8Zm-4.167,4H10.666a.667.667,0,0,1,0-1.334h2.667a.667.667,0,1,1,0,1.334Z" transform="translate(-4189 2058)" fill="#adb5d9" opacity="0.5"/>
    <path id="Path_1060" data-name="Path 1060" d="M23.548,15.559l-3.5-1.19a.66.66,0,0,0-.43,0l-3.5,1.19a.667.667,0,0,0-.452.631v2.679c0,3.378,3.746,5.01,3.906,5.078a.68.68,0,0,0,.261.053.673.673,0,0,0,.261-.053c.16-.068,3.906-1.7,3.906-5.078V16.19a.667.667,0,0,0-.452-.631ZM22.2,18.067l-2,2.667a.666.666,0,0,1-.486.265h-.047A.667.667,0,0,1,19.2,20.8l-1.333-1.333a.667.667,0,0,1,.943-.943l.79.79,1.539-2.052a.666.666,0,1,1,1.065.8Z" transform="translate(-4189 2058)" fill="#adb5d9"/>
  </g>
</svg>
