<svg xmlns="http://www.w3.org/2000/svg" width="22" height="11.751" viewBox="0 0 22 11.751">
  <g id="Group_2252" data-name="Group 2252" transform="translate(-217.901 -503.715)">
    <path id="Path_1235" data-name="Path 1235" d="M254.92,511.9c-.511-.654-1.039-1.3-1.532-1.962a3.694,3.694,0,0,1-.437-4,3.634,3.634,0,0,1,3.367-2.2q1.609-.045,3.221.007a6.889,6.889,0,0,1,4.615,1.989,12.652,12.652,0,0,1,2.1,3.17.384.384,0,0,1-.089.346c-.49.461-.976.93-1.505,1.343a3.441,3.441,0,0,1-3.17.633c.058-.085.085-.134.121-.175.479-.55.476-.81-.026-1.316-.424-.427-.844-.857-1.277-1.274a.717.717,0,0,0-1.13.007c-.655.641-1.309,1.283-1.942,1.945a2.107,2.107,0,0,0,.005,3.01,11.4,11.4,0,0,0,.823.817c.247.214.21.4.032.618a1.5,1.5,0,0,1-1.238.572q-2.169,0-4.338,0h-1.2v-3.2h3.84C255.045,512.078,254.987,511.984,254.92,511.9Z" transform="translate(-30.539)" fill="#fe7d13"/>
    <path id="Path_1236" data-name="Path 1236" d="M401.746,584.833l1.56-1.188a9.421,9.421,0,0,0,.987.214,9.73,9.73,0,0,0,.983.007v4.626c-.386,0-.741.01-1.095,0a2.29,2.29,0,0,1-2.22-2.673C402.032,585.411,402.167,585.05,401.746,584.833Z" transform="translate(-168.05 -73.063)" fill="#fe7d13"/>
    <path id="Path_1237" data-name="Path 1237" d="M321.38,568.265a1.337,1.337,0,0,1,.037-1.837c.66-.694,1.35-1.36,2.029-2.039L325,565.933l-1.594,1.479,1.766,1.7-1.463,1.461C322.94,569.818,322.136,569.064,321.38,568.265Z" transform="translate(-94.271 -55.461)" fill="#fe7d13"/>
    <path id="Path_1238" data-name="Path 1238" d="M453.371,589.629a2.179,2.179,0,0,1-1.937,2.185v-4.422A2.194,2.194,0,0,1,453.371,589.629Z" transform="translate(-213.47 -76.488)" fill="#fe7d13"/>
    <path id="Path_1239" data-name="Path 1239" d="M220.157,607.4v1.3l-.108-.024a2.79,2.79,0,0,0-.367.426,6.66,6.66,0,0,0-.283.669.879.879,0,0,1-1.177.364.4.4,0,0,1-.172-.272c-.013-.824-.008-1.648-.008-2.467Z" transform="translate(-0.127 -94.772)" fill="#fe7d13"/>
    <path id="Path_1240" data-name="Path 1240" d="M217.927,582.566c.021-.142.194-.365.309-.372.591-.038,1.185-.017,1.795-.017v1.39h-2.119A7.073,7.073,0,0,1,217.927,582.566Z" transform="translate(0 -71.715)" fill="#fe7d13"/>
    <path id="Path_1241" data-name="Path 1241" d="M362.2,624.024c.836,0,1.581.675,1.429,1.349h-2.938c.5-.479.911-.872,1.325-1.26A.306.306,0,0,1,362.2,624.024Z" transform="translate(-130.52 -109.973)" fill="#fe7d13"/>
    <path id="Path_1242" data-name="Path 1242" d="M253.6,582.969h-2.288v-1C252.266,581.9,253.223,581.738,253.6,582.969Z" transform="translate(-30.544 -71.486)" fill="#fe7d13"/>
  </g>
</svg>
