<svg xmlns="http://www.w3.org/2000/svg" width="16" height="15.5" viewBox="0 0 16 15.5">
  <g id="Privilege" transform="translate(4117 -1989)">
    <path id="Path_1043" data-name="Path 1043" d="M140.332,128h-8.666a3.274,3.274,0,1,0,0,6.5h8.666a3.274,3.274,0,1,0,0-6.5Zm-8.665,4.727a1.479,1.479,0,1,1,0-2.954,1.478,1.478,0,1,1,0,2.954Zm0,0" transform="translate(-4245 1861)" fill="#adb5d9"/>
    <path id="Path_1044" data-name="Path 1044" d="M140.332,128h-8.666a3.274,3.274,0,1,0,0,6.5h8.666a3.274,3.274,0,1,0,0-6.5Zm-8.665,4.727a1.479,1.479,0,1,1,0-2.954,1.478,1.478,0,1,1,0,2.954Zm0,0" transform="translate(-4245 1870)" fill="#adb5d9" opacity="0.5"/>
  </g>
</svg>
