<svg id="Salary" xmlns="http://www.w3.org/2000/svg" width="16" height="15.963" viewBox="0 0 16 15.963">
  <g id="Group_1938" data-name="Group 1938" transform="translate(0.082 0)" opacity="0.5">
    <path id="Path_1185" data-name="Path 1185" d="M260.718,301.472a2.128,2.128,0,0,1,1.22-.594,10.583,10.583,0,0,1,1.234-.032c.212.006.329-.045.357-.261a.4.4,0,0,1,.29-.323q3.513-1.522,7.018-3.063a.72.72,0,0,1,.589-.046,2.8,2.8,0,0,0,.321.083.831.831,0,0,0,1.244.551.391.391,0,0,1,.294-.014.915.915,0,0,1,.7.659c.218.577.485,1.136.736,1.7.1.223.226.437.075.71a2.507,2.507,0,0,1,1.758.468c-.044-.109-.065-.165-.089-.219q-1.086-2.436-2.173-4.873a1.464,1.464,0,0,0-2.032-.789q-5.313,2.335-10.623,4.676A1.5,1.5,0,0,0,260.718,301.472Z" transform="translate(-260.718 -295.276)" fill="#adb5d9"/>
    <path id="Path_1186" data-name="Path 1186" d="M270.46,300.823a2.087,2.087,0,0,0-1.84-1.129,2.213,2.213,0,0,0-1.991,1.129Z" transform="translate(-260.536 -295.276)" fill="#adb5d9"/>
    <path id="Path_1187" data-name="Path 1187" d="M264.858,300.84h.224a.712.712,0,0,0,.7-.935.906.906,0,0,0-1.155-.639.952.952,0,0,0-.615,1.228.49.49,0,0,0,.5.346Z" transform="translate(-253.205 -295.276)" fill="#adb5d9"/>
  </g>
  <g id="Group_1939" data-name="Group 1939" transform="translate(0 6.36)">
    <path id="Path_1188" data-name="Path 1188" d="M268.655,311.239q3.168,0,6.336,0a1.59,1.59,0,0,0,1.615-1.289,1.926,1.926,0,0,0,.028-.372q0-3.121,0-6.243a1.6,1.6,0,0,0-1.69-1.7q-6.318,0-12.637,0a1.6,1.6,0,0,0-1.67,1.659q0,3.141,0,6.281a1.586,1.586,0,0,0,1.662,1.661Q265.476,311.242,268.655,311.239Zm-.033-8.482c1.3,0,2.6.017,3.9-.01a1.2,1.2,0,0,1,1.042.4s.012.007.014.012a.664.664,0,0,1,.094.206.958.958,0,0,0,.913.982.9.9,0,0,1,.6.28c.045.044.108.073.14.123a.512.512,0,0,1,.106.238c.007.943,0,1.887,0,2.83,0,.05.011.125-.015.145-.241.18-.391.486-.756.492a.952.952,0,0,0-.98.911.427.427,0,0,1-.187.357,1.139,1.139,0,0,0-.171.146.567.567,0,0,1-.466.178c-2.693-.006-5.387-.013-8.08.005a1.128,1.128,0,0,1-.973-.377.511.511,0,0,1-.124-.265.943.943,0,0,0-.856-.936,1.062,1.062,0,0,1-.714-.338.509.509,0,0,0-.142-.119c-.138-.048-.135-.148-.135-.265,0-.825.017-1.65-.006-2.474a.749.749,0,0,1,.333-.725.887.887,0,0,1,.48-.2.946.946,0,0,0,.941-.87.508.508,0,0,1,.231-.432.954.954,0,0,0,.171-.146.485.485,0,0,1,.4-.15C265.8,302.759,267.209,302.757,268.622,302.757Z" transform="translate(-260.636 -301.636)" fill="#adb5d9"/>
    <path id="Path_1189" data-name="Path 1189" d="M268.722,304.191a2.343,2.343,0,0,0-2.383,1.948,2.069,2.069,0,0,0,.858,2.035,2.564,2.564,0,0,0,2.964.076,2.188,2.188,0,0,0,.908-2.261,2.246,2.246,0,0,0-1.809-1.733C269.083,304.223,268.9,304.212,268.722,304.191Z" transform="translate(-260.791 -301.636)" fill="#adb5d9"/>
    <path id="Path_1190" data-name="Path 1190" d="M264.227,305.484a.978.978,0,0,0-1.031.959,1.041,1.041,0,1,0,1.031-.959Z" transform="translate(-251.831 -301.636)" fill="#adb5d9"/>
    <path id="Path_1191" data-name="Path 1191" d="M273.032,305.484a.984.984,0,0,0-1.032.96,1.041,1.041,0,0,0,2.076-.015A.979.979,0,0,0,273.032,305.484Z" transform="translate(-269.44 -301.636)" fill="#adb5d9"/>
  </g>
</svg>
