<svg xmlns="http://www.w3.org/2000/svg" width="14.222" height="16" viewBox="0 0 14.222 16">
  <g id="Group_2241" data-name="Group 2241" transform="translate(-21 -159)">
    <path id="chart-line_1_" data-name="chart-line (1)" d="M5.411,13.2A1.139,1.139,0,0,0,6.478,12a.693.693,0,0,0,0-.12L8.462,9.648h.327l1.145,1.288V11A1.139,1.139,0,0,0,11,12.2,1.139,1.139,0,0,0,12.067,11v-.064L14.656,8h0a1.139,1.139,0,0,0,1.067-1.2,1.074,1.074,0,1,0-2.133,0,.692.692,0,0,0,0,.12L11.022,9.808h-.114L9.678,8.4A1.139,1.139,0,0,0,8.611,7.2,1.139,1.139,0,0,0,7.544,8.4L5.411,10.8h0A1.139,1.139,0,0,0,4.344,12a1.139,1.139,0,0,0,1.067,1.2Zm9.6,3.2H2.922V2.8A.759.759,0,0,0,2.211,2a.759.759,0,0,0-.711.8V17.2a.759.759,0,0,0,.711.8h12.8a.806.806,0,0,0,0-1.6Z" transform="translate(19.5 157)" fill="#9da7be"/>
  </g>
</svg>
