<svg xmlns="http://www.w3.org/2000/svg" width="16" height="16" viewBox="0 0 16 16">
  <g id="Send_Email" data-name="Send Email" transform="translate(4121 -1594)">
    <path id="Path_1075" data-name="Path 1075" d="M18.667,17.333v-.167a1.833,1.833,0,0,1,3.164-1.261l.59.622a1.653,1.653,0,0,0,.246-.861v-6A1.666,1.666,0,0,0,21,8H9.667A1.667,1.667,0,0,0,8,9.667v6a1.667,1.667,0,0,0,1.667,1.667h9Zm-9.334-6.58V9.647l6,2.8,6-2.8v1.107l-5.647,2.633a.819.819,0,0,1-.706,0Z" transform="translate(-4129 1586)" fill="#b4bce1"/>
    <path id="Path_1076" data-name="Path 1076" d="M23.863,19.99l-3-3.167a.5.5,0,0,0-.863.344v1.5H15.167a.5.5,0,0,0-.5.5V21.5a.5.5,0,0,0,.5.5H20v1.5a.5.5,0,0,0,.315.465A.519.519,0,0,0,20.5,24a.5.5,0,0,0,.363-.156l3-3.167A.5.5,0,0,0,23.863,19.99Z" transform="translate(-4129 1586)" fill="#b4bce1" opacity="0.5"/>
  </g>
</svg>
