<svg xmlns="http://www.w3.org/2000/svg" width="16.001" height="16.001" viewBox="0 0 16.001 16.001">
  <g id="Set_Holiday" data-name="Set Holiday" transform="translate(4156 -2339)">
    <g id="Group_1806" data-name="Group 1806" transform="translate(-4150.408 2344.605)">
      <path id="Path_1053" data-name="Path 1053" d="M222.663,255.777l-4.361,4.361a.333.333,0,0,0-.089.16l-.727,3.084a.332.332,0,0,0,.325.409.323.323,0,0,0,.076-.009l3.084-.727a.333.333,0,0,0,.159-.089l4.361-4.361Zm0,0" transform="translate(-217.477 -253.396)" fill="#adb5d9"/>
      <path id="Path_1054" data-name="Path 1054" d="M315.867,219l-.943-.943a1.365,1.365,0,0,0-1.886,0l-1.3,1.3,2.829,2.829,1.3-1.3a1.332,1.332,0,0,0,0-1.886Zm0,0" transform="translate(-305.85 -217.679)" fill="#adb5d9"/>
    </g>
    <g id="Group_1805" data-name="Group 1805" transform="translate(-4156 2341.5)" opacity="0.5">
      <path id="Path_1055" data-name="Path 1055" d="M310,170.672a.668.668,0,0,0-.667.667v1.333a.667.667,0,1,0,1.334,0v-1.333A.667.667,0,0,0,310,170.672Zm0,0" transform="translate(-297.995 -170.505)" fill="#adb5d9"/>
      <path id="Path_1056" data-name="Path 1056" d="M137.713,171.5H135v-2a.667.667,0,1,0-1.333,0v2h-4.334v-2.833a.667.667,0,1,0-1.333,0v9.167a1.669,1.669,0,0,0,1.667,1.666h2.893a.667.667,0,1,0,0-1.334h-2.893a.333.333,0,0,1-.333-.333v-1.667h5A.665.665,0,0,0,135,175.5v-2.667h2.713a.667.667,0,1,0,0-1.333Zm-8.38,1.333h4.333v2h-4.333Zm0,0" transform="translate(-127.999 -168)" fill="#adb5d9"/>
    </g>
    <path id="Path_1057" data-name="Path 1057" d="M139.167,128H129.5a1.5,1.5,0,0,0-1.5,1.5V132h12.667v-2.5A1.5,1.5,0,0,0,139.167,128Zm0,0" transform="translate(-4284 2211)" fill="#adb5d9"/>
  </g>
</svg>
