<svg xmlns="http://www.w3.org/2000/svg" width="15.253" height="16" viewBox="0 0 15.253 16">
  <path id="Settings" d="M148.91,137.783l0,0-1.025-.942a6.673,6.673,0,0,0,0-1.678l1.028-.945a1.011,1.011,0,0,0,.186-1.236l-1.131-1.957a1,1,0,0,0-1.171-.454l-1.33.42a6.109,6.109,0,0,0-1.45-.842l-.308-1.366a1,1,0,0,0-.971-.781h-2.267a1,1,0,0,0-.971.78l-.309,1.367a6.128,6.128,0,0,0-1.45.842l-1.331-.42a1,1,0,0,0-1.167.451l-1.135,1.963a1.011,1.011,0,0,0,.191,1.236l1.025.942a6.693,6.693,0,0,0-.053.839,6.883,6.883,0,0,0,.053.839l-1.028.945a1.011,1.011,0,0,0-.186,1.236l1.131,1.957a1,1,0,0,0,1.171.455l1.33-.42a6.108,6.108,0,0,0,1.45.842l.308,1.365a1,1,0,0,0,.972.782h2.267a1,1,0,0,0,.971-.78l.309-1.367a6.124,6.124,0,0,0,1.45-.842l1.331.42a1,1,0,0,0,1.167-.452l1.135-1.963a1.013,1.013,0,0,0-.189-1.233Zm-7.309,1.883A3.667,3.667,0,1,1,145.268,136,3.671,3.671,0,0,1,141.6,139.666Zm0,0" transform="translate(-133.976 -128)" fill="#adb5d9"/>
</svg>
