<?xml version="1.0" encoding="iso-8859-1"?>
<!-- Generator: Adobe Illustrator 19.0.0, SVG Export Plug-In . SVG Version: 6.00 Build 0)  -->
<svg version="1.1" id="Capa_1" xmlns="http://www.w3.org/2000/svg" xmlns:xlink="http://www.w3.org/1999/xlink" x="0px" y="0px"
	 viewBox="0 0 512 512" style="enable-background:new 0 0 512 512;" xml:space="preserve">
<g>
	<g>
		<path d="M437.02,74.98C388.666,26.629,324.379,0,256,0C187.619,0,123.332,26.629,74.98,74.98C26.629,123.332,0,187.619,0,256
			s26.629,132.668,74.98,181.02C123.332,485.371,187.619,512,256,512c68.379,0,132.666-26.629,181.02-74.98
			C485.371,388.668,512,324.38,512,256S485.371,123.332,437.02,74.98z M374.278,359.279L374.278,359.279
			c-0.001,8.284-6.718,15-15.001,15H152.721c-8.285,0-15-6.716-15-15V152.723c0-8.284,6.715-15,15-15h206.557
			c8.283,0,15,6.716,15,15V359.279z"/>
	</g>
</g>
<g>
</g>
<g>
</g>
<g>
</g>
<g>
</g>
<g>
</g>
<g>
</g>
<g>
</g>
<g>
</g>
<g>
</g>
<g>
</g>
<g>
</g>
<g>
</g>
<g>
</g>
<g>
</g>
<g>
</g>
</svg>
