<svg xmlns="http://www.w3.org/2000/svg" width="22" height="22.014" viewBox="0 0 22 22.014">
  <g id="Group_2251" data-name="Group 2251" transform="translate(-217.391 -159.565)">
    <path id="Path_1221" data-name="Path 1221" d="M225.16,160.511a5.04,5.04,0,0,1,6.294.358L224.338,168a4.936,4.936,0,0,1-1.28-3.122c-.006-.086,0-.172,0-.258-.01-.567-.323-.928-.792-.913a.807.807,0,0,0-.751.914q0,6.183,0,12.366,0,1.889,0,3.779c0,.584-.219.807-.8.809q-1.264.005-2.527,0c-.555,0-.788-.227-.788-.774,0-5.5-.028-10.993.015-16.488a4.549,4.549,0,0,1,2.478-4.092,4.732,4.732,0,0,1,4.928.07C224.932,160.357,225.037,160.432,225.16,160.511Z" transform="translate(0 0)" fill="#fe7d13"/>
    <path id="Path_1222" data-name="Path 1222" d="M314.647,182.649a3.106,3.106,0,0,1-.342.552q-3.652,3.669-7.318,7.324a.662.662,0,0,1-.984.08.639.639,0,0,1,.073-.978q3.657-3.664,7.319-7.323c.232-.233.506-.376.8-.195A2.279,2.279,0,0,1,314.647,182.649Z" transform="translate(-80.808 -20.536)" fill="#fe7d13"/>
    <path id="Path_1223" data-name="Path 1223" d="M361.746,302.638a.641.641,0,0,1-.666.63.614.614,0,0,1-.613-.629.642.642,0,0,1,.613-.644A.664.664,0,0,1,361.746,302.638Z" transform="translate(-130.782 -130.19)" fill="#fe7d13"/>
    <path id="Path_1224" data-name="Path 1224" d="M372.689,335.453a.67.67,0,0,1-.679.631.637.637,0,0,1-.6-.653.628.628,0,0,1,.665-.626A.654.654,0,0,1,372.689,335.453Z" transform="translate(-140.786 -160.181)" fill="#fe7d13"/>
    <path id="Path_1225" data-name="Path 1225" d="M459.137,247.7a.634.634,0,0,1,.65.6.64.64,0,1,1-1.28.021A.635.635,0,0,1,459.137,247.7Z" transform="translate(-220.396 -80.558)" fill="#fe7d13"/>
    <path id="Path_1226" data-name="Path 1226" d="M350.78,270.139a.652.652,0,0,1-.659.64.632.632,0,1,1,.659-.64Z" transform="translate(-120.758 -100.502)" fill="#fe7d13"/>
    <path id="Path_1227" data-name="Path 1227" d="M426.366,238.041a.672.672,0,0,1-.636-.674.639.639,0,0,1,.65-.6.608.608,0,0,1,.621.617A.645.645,0,0,1,426.366,238.041Z" transform="translate(-190.429 -70.564)" fill="#fe7d13"/>
    <path id="Path_1228" data-name="Path 1228" d="M372.02,248.97a.635.635,0,0,1-.607-.686.614.614,0,0,1,.651-.587.638.638,0,0,1,.623.628A.681.681,0,0,1,372.02,248.97Z" transform="translate(-140.786 -80.558)" fill="#fe7d13"/>
    <path id="Path_1229" data-name="Path 1229" d="M416.172,291.764a.6.6,0,0,1-.642.636.617.617,0,0,1-.624-.619.661.661,0,0,1,.653-.65A.631.631,0,0,1,416.172,291.764Z" transform="translate(-180.542 -120.259)" fill="#fe7d13"/>
    <path id="Path_1230" data-name="Path 1230" d="M394.517,313.531a.636.636,0,0,1-.651.643.606.606,0,0,1-.616-.621.645.645,0,0,1,.638-.657A.668.668,0,0,1,394.517,313.531Z" transform="translate(-160.748 -140.155)" fill="#fe7d13"/>
    <path id="Path_1231" data-name="Path 1231" d="M394.509,226.424a.656.656,0,0,1-.648.654.637.637,0,0,1-.617-.632.632.632,0,1,1,1.264-.023Z" transform="translate(-160.742 -60.542)" fill="#fe7d13"/>
    <path id="Path_1232" data-name="Path 1232" d="M437.9,270.16a.63.63,0,0,1-.656.634.666.666,0,0,1-.62-.642.648.648,0,0,1,.672-.623A.6.6,0,0,1,437.9,270.16Z" transform="translate(-200.391 -100.515)" fill="#fe7d13"/>
    <path id="Path_1233" data-name="Path 1233" d="M383.623,280.957a.639.639,0,0,1-.66.632.589.589,0,0,1-.61-.621.612.612,0,0,1,.643-.639A.647.647,0,0,1,383.623,280.957Z" transform="translate(-150.787 -110.386)" fill="#fe7d13"/>
    <path id="Path_1234" data-name="Path 1234" d="M404.781,258.622a.593.593,0,0,1,.592.64.629.629,0,1,1-1.257-.027A.6.6,0,0,1,404.781,258.622Z" transform="translate(-170.679 -90.544)" fill="#fe7d13"/>
  </g>
</svg>
