<svg xmlns="http://www.w3.org/2000/svg" width="15.558" height="16" viewBox="0 0 15.558 16">
  <path id="webcam" d="M10.062,10.811a2.4,2.4,0,1,0-2.4-2.4A2.4,2.4,0,0,0,10.062,10.811Zm0-3.2a.8.8,0,1,1-.8.8A.8.8,0,0,1,10.062,7.608Zm7.679,7.334a8.007,8.007,0,0,0-2.074-3.419,6.405,6.405,0,1,0-11.209,0,7.927,7.927,0,0,0-2.082,3.419A2.4,2.4,0,0,0,4.7,18.017H15.427a2.4,2.4,0,0,0,2.314-3.075ZM10.062,3.6a4.8,4.8,0,1,1-4.8,4.8,4.8,4.8,0,0,1,4.8-4.8Zm6.021,12.483a.8.8,0,0,1-.657.328H4.7a.8.8,0,0,1-.777-1.025,6.285,6.285,0,0,1,1.505-2.578,6.405,6.405,0,0,0,9.272,0A6.285,6.285,0,0,1,16.2,15.391.8.8,0,0,1,16.084,16.087Z" transform="translate(-2.279 -2.017)" fill="#9da7be"/>
</svg>
